<svg xmlns="http://www.w3.org/2000/svg" xmlns:xlink="http://www.w3.org/1999/xlink" width="130px" height="52px" viewBox="0 0 130 52" version="1.1">
    <!-- Generator: Sketch 64 (93537) - https://sketch.com -->
    <title>OrderGuru_signature_layout</title>
    <desc>Created with Sketch.</desc>
    <g id="Page-1" stroke="none" stroke-width="1" fill="none" fill-rule="evenodd">
        <g id="02-1-Home" transform="translate(-128.000000, -11.000000)" fill-rule="nonzero">
            <g id="OrderGuru_signature_layout" transform="translate(128.000000, 11.000000)">
                <path d="M14.0008727,16.5 C10.3606308,16.4997002 7.07867784,18.6923379 5.68547909,22.0554255 C4.29228034,25.4185131 5.06222378,29.2896967 7.63626352,31.8637365 C10.2103033,34.4377762 14.0814869,35.2077197 17.4445745,33.8145209 C20.8076621,32.4213222 23.0002998,29.1393692 23,25.4991273 C22.9995907,20.5292161 18.9707839,16.5004093 14.0008727,16.5 M14.0008727,29.9990615 C11.5156277,29.9990615 9.5009385,27.9843723 9.5009385,25.4991273 C9.5009385,23.0138822 11.5156277,20.999193 14.0008727,20.999193 C16.4861178,20.999193 18.500807,23.0138822 18.500807,25.4991273 C18.500807,27.9843723 16.4861178,29.9990615 14.0008727,29.9990615" id="Shape" fill="#F26822"/>
                <path d="M39.2484475,25.5038101 L36.9989176,25.5038101 L40.1839616,28.6887102 C38.8207752,30.0495272 36.7422411,30.3910466 35.0152615,29.537968 C33.2882819,28.6848895 32.2964425,26.8266934 32.5488499,24.9171835 C32.8012573,23.0076735 34.2418484,21.4709777 36.1311744,21.0958752 C38.0205003,20.7207726 39.9389161,21.5905787 40.9017075,23.2588258 L45.7163089,23.2588258 C44.533083,18.6588099 39.9784389,15.7703041 35.3127484,16.6610007 C30.6470578,17.5516974 27.4769138,21.9148923 28.071615,26.6272596 C28.6663162,31.3396269 32.8210821,34.7785009 37.5617875,34.4822167 C42.3024929,34.1859325 45.9967143,30.256513 46,25.5067728 L39.2484475,25.5038101 Z" id="Path" fill="#F26822"/>
                <polygon id="Path" fill="#FDB615" points="37.0916749 42.0221656 39.9482161 44.5 45.6627849 43.5084624 47 40.9996634 45.6627849 38.4908645 39.9482161 37.5 37.0916749 39.9771613 37.0916749 40.5634676 6.06367691 38.678671 5 40.9996634 6.06367691 43.3206558 37.0916749 41.4358592"/>
                <polygon id="Path" fill="#FDB615" points="12.7498447 6.5 5.73481555 7.67256465 12.7550615 8.67295353 5 10 12.7550615 11.3270465 5.73481555 12.3267548 12.7498447 13.5 14.8246181 10.4409878 45.9335486 12.3458098 47 10 45.9335486 7.65350962 14.8246181 9.55901225"/>
                <path d="M51,51.5 L0.00970603736,51.5 L0,0.5 L50.9940271,0.5 L51,51.5 Z M0.571162968,50.9339556 L50.4280904,50.9339556 L50.4280904,1.06753789 L0.571162968,1.06753789 L0.571162968,50.9339556 Z" id="Shape" fill="#DF2E26"/>
                <g id="Group" opacity="0.2" transform="translate(25.000000, 50.500000)" fill="#ED2024">
                    <g id="Rectangle">
                        <rect x="0.02125" y="0.045" width="1" height="1"/>
                    </g>
                </g>
                <g id="Group" opacity="0.2" transform="translate(0.000000, 26.500000)" fill="#ED2024">
                    <g id="Rectangle">
                        <rect x="0.0075" y="0.0533333333" width="1" height="1"/>
                    </g>
                </g>
                <path d="M60.141791,8.52272727 C61.3955224,6.93181818 63.2089552,6.5 65,6.5 C66.7910448,6.5 68.6044776,6.93181818 69.858209,8.52272727 C70.7761194,9.70454545 71,11.75 71,14.5 C71,17.25 70.7761194,19.2954545 69.858209,20.4772727 C68.6044776,22.0681818 66.7910448,22.5 65,22.5 C63.2089552,22.5 61.3955224,22.0681818 60.141791,20.4772727 C59.2238806,19.2954545 59,17.25 59,14.5 C59,11.75 59.2238806,9.70454545 60.141791,8.52272727 M66.6791045,11.1136364 C66.3208955,10.4545455 65.6716418,10.1818182 65,10.1818182 C64.3283582,10.1818182 63.6791045,10.4545455 63.3208955,11.1136364 C62.9850746,11.7272727 62.9402985,13.0681818 62.9402985,14.5 C62.9402985,15.9318182 62.9850746,17.2727273 63.3208955,17.8863636 C63.6791045,18.5454545 64.3283582,18.8181818 65,18.8181818 C65.6716418,18.8181818 66.3208955,18.5454545 66.6791045,17.8863636 C67.0149254,17.2727273 67.0597015,15.9318182 67.0597015,14.5 C67.0597015,13.0681818 67.0149254,11.7272727 66.6791045,11.1136364" id="Shape" fill="#F26822"/>
                <path d="M86.6781609,19.6435373 C86.908046,20.0320162 87,20.3747917 87,20.6718638 C87,21.654487 85.8505747,22.5 84.862069,22.5 C84.3563218,22.5 83.8275862,22.2486313 83.4137931,21.5402285 L80.7241379,16.8556296 C80.6091954,16.6499643 80.5402299,16.6499643 80.3563218,16.6499643 L79.1149425,16.6499643 C78.954023,16.6499643 78.908046,16.6499643 78.908046,16.8556296 L78.908046,20.8775292 C78.908046,22.1800762 77.8505747,22.5 76.9310345,22.5 C76.0574713,22.5 75,22.1800762 75,20.8775292 L75,8.25958105 C75,6.95703404 75.8735632,6.5 76.8390805,6.5 L81.9885057,6.5 C84.7471264,6.5 86.9310345,8.14532254 86.9310345,11.5959295 C86.9310345,13.7896929 86.1954023,15.1836468 84.7471264,15.9377529 C84.6551724,15.9834563 84.6321839,16.0291597 84.6321839,16.0977148 C84.6321839,16.1471591 84.6483168,16.1952696 84.6781609,16.234825 L86.6781609,19.6435373 Z M81.4367816,12.9251369 C82.3103448,12.9251369 82.908046,12.4452511 82.908046,11.5997382 C82.908046,10.7313735 82.3103448,10.228636 81.4367816,10.228636 L79.1149425,10.228636 C78.954023,10.228636 78.908046,10.2743394 78.908046,10.4343014 L78.908046,12.7194716 C78.908046,12.9251369 78.954023,12.9251369 79.1149425,12.9251369 L81.4367816,12.9251369 Z" id="Shape" fill="#F26822"/>
                <path d="M95.0916808,6.5 C96.9026599,6.5 98.6004527,6.8908046 99.8455008,8.45402299 C100.796265,9.62643678 101,11.7183908 101,14.5 C101,17.2816092 100.796265,19.3735632 99.8455008,20.545977 C98.6004527,22.1091954 96.9026599,22.5 95.0916808,22.5 L90.8109791,22.5 C89.8594605,22.5 89,22.0862069 89,20.7758621 L89,8.27011494 C89,6.95977011 89.8594605,6.5 90.8109791,6.5 L95.0916808,6.5 Z M93.0543294,10.2241379 C92.8958687,10.2241379 92.8505942,10.2701149 92.8505942,10.4310345 L92.8505942,18.5727969 C92.8505942,18.7337165 92.8958687,18.7796935 93.0543294,18.7796935 L94.9332201,18.7796935 C95.6123373,18.7796935 96.2688172,18.5498084 96.631013,17.9291188 C96.9705716,17.3314176 97.0158461,15.9521073 97.0158461,14.5038314 C97.0158461,13.0555556 96.9932088,11.6992337 96.631013,11.0785441 C96.2914544,10.4808429 95.6123373,10.2279693 94.9332201,10.2279693 L93.0543294,10.2241379 Z" id="Shape" fill="#F26822"/>
                <path d="M114.069767,6.5 C115.372093,6.5 115.767442,7.39633708 115.767442,8.38460618 C115.767442,9.32690927 115.372093,10.2232463 114.069767,10.2232463 L109.162016,10.2232463 C109,10.2232463 108.952713,10.2692124 108.952713,10.4300934 L108.952713,12.1997845 C108.952713,12.3606655 109,12.4066316 109.162016,12.4066316 L113.255814,12.4066316 C114.55814,12.4066316 114.953488,13.3029686 114.953488,14.2912377 C114.953488,15.2335408 114.55814,16.1298779 113.255814,16.1298779 L109.162016,16.1298779 C109,16.1298779 108.952713,16.1758439 108.952713,16.3367249 L108.952713,18.5699066 C108.952713,18.7307876 109,18.7767537 109.162016,18.7767537 L114.302326,18.7767537 C115.604651,18.7767537 116,19.6730907 116,20.6613598 C116,21.6036629 115.604651,22.5 114.302326,22.5 L106.860465,22.5 C105.883721,22.5 105,22.086306 105,20.7762748 L105,8.26969117 C105,6.95966004 105.883721,6.5 106.860465,6.5 L114.069767,6.5 Z" id="Path" fill="#F26822"/>
                <path d="M129.678161,19.6435373 C129.908046,20.0320162 130,20.3747917 130,20.6718638 C130,21.654487 128.850575,22.5 127.862069,22.5 C127.356322,22.5 126.827586,22.2486313 126.413793,21.5402285 L123.724138,16.8556296 C123.609195,16.6499643 123.54023,16.6499643 123.356322,16.6499643 L122.114943,16.6499643 C121.954023,16.6499643 121.908046,16.6499643 121.908046,16.8556296 L121.908046,20.8775292 C121.908046,22.1800762 120.850575,22.5 119.931034,22.5 C119.057471,22.5 118,22.1800762 118,20.8775292 L118,8.25958105 C118,6.95703404 118.873563,6.5 119.83908,6.5 L124.988506,6.5 C127.747126,6.5 129.931034,8.14532254 129.931034,11.5959295 C129.931034,13.7896929 129.195402,15.1836468 127.747126,15.9377529 C127.655172,15.9834563 127.632184,16.0291597 127.632184,16.0977148 C127.632184,16.1471591 127.648317,16.1952696 127.678161,16.234825 L129.678161,19.6435373 Z M124.436782,12.9251369 C125.310345,12.9251369 125.908046,12.4452511 125.908046,11.5997382 C125.908046,10.7313735 125.310345,10.228636 124.436782,10.228636 L122.114943,10.228636 C121.954023,10.228636 121.908046,10.2743394 121.908046,10.4343014 L121.908046,12.7194716 C121.908046,12.9251369 121.954023,12.9251369 122.114943,12.9251369 L124.436782,12.9251369 Z" id="Shape" fill="#F26822"/>
                <path d="M63.4114286,33.1098485 C63.0685714,33.7234848 63.0228571,35.0643939 63.0228571,36.4962121 C63.0228571,37.9280303 63.0685714,39.2689394 63.4114286,39.8825758 C63.7771429,40.5416667 64.44,40.8143939 65.1257143,40.8143939 C65.8114286,40.8143939 66.2685714,40.5643939 66.68,40.155303 C66.84,39.9962121 67.1142857,39.4962121 67.1142857,39.0871212 L67.1142857,38.9318182 C67.1142857,38.7727273 67.0457143,38.7272727 66.9085714,38.7272727 L66.6342857,38.7272727 C65.3542857,38.7272727 64.9657143,37.8409091 64.9657143,36.9090909 C64.9657143,35.9318182 65.3542857,35.0454545 66.6342857,35.0454545 L69.5828571,35.0454545 C70.4971429,35.0454545 71,35.6363636 71,36.4545455 L71,38.8181818 C71,40.4772727 70.4742857,41.7954545 69.9028571,42.5227273 C68.6457143,44.1136364 66.9085714,44.5 65.1257143,44.5 C63.2971429,44.5 61.4457143,44.0681818 60.1657143,42.4772727 C59.2285714,41.2954545 59,39.25 59,36.5 C59,33.75 59.2285714,31.7045455 60.1657143,30.5227273 C61.4457143,28.9318182 63.2742857,28.5 65.1714286,28.5 C66.84,28.5 68.2342857,28.8409091 69.3085714,29.6363636 C69.7885714,29.9772727 70.1314286,30.3409091 70.1314286,31.1363636 C70.1314286,32.0454545 69.1942857,33.0681818 68.28,33.0681818 C67.8685714,33.0681818 67.5942857,32.9318182 67.3428571,32.7954545 C66.52,32.3409091 66.0628571,32.1590909 65.2171429,32.1590909 C64.44,32.1590909 63.7771429,32.4545455 63.4114286,33.1136364" id="Path" fill="#F26822"/>
                <path d="M73,30.1136364 C73,28.8181818 74.0574713,28.5 74.9310345,28.5 C75.8505747,28.5 76.908046,28.8181818 76.908046,30.1136364 L76.908046,38.7272727 C76.908046,40.1136364 77.7126437,40.8181818 79,40.8181818 C80.2873563,40.8181818 81.091954,40.1136364 81.091954,38.7272727 L81.091954,30.1136364 C81.091954,28.8181818 82.1494253,28.5 83.0229885,28.5 C83.9425287,28.5 85,28.8181818 85,30.1136364 L85,38.6590909 C85,42.1363636 82.9770115,44.5 79,44.5 C74.9770115,44.5 73,42.1363636 73,38.6590909 L73,30.1136364 Z" id="Path" fill="#F26822"/>
                <path d="M100.678161,41.6435373 C100.908046,42.0320162 101,42.3747917 101,42.6718638 C101,43.654487 99.8505747,44.5 98.862069,44.5 C98.3563218,44.5 97.8275862,44.2486313 97.4137931,43.5402285 L94.7241379,38.8556296 C94.6091954,38.6499643 94.5402299,38.6499643 94.3563218,38.6499643 L93.1149425,38.6499643 C92.954023,38.6499643 92.908046,38.6499643 92.908046,38.8556296 L92.908046,42.8775292 C92.908046,44.1800762 91.8505747,44.5 90.9310345,44.5 C90.0574713,44.5 89,44.1800762 89,42.8775292 L89,30.2595811 C89,28.957034 89.8735632,28.5 90.8390805,28.5 L95.9862069,28.5 C98.7448276,28.5 100.928736,30.1453225 100.928736,33.5959295 C100.928736,35.7896929 100.193103,37.1836468 98.7448276,37.9377529 C98.6528736,37.9834563 98.6298851,38.0291597 98.6298851,38.0977148 C98.6298851,38.1471591 98.6460179,38.1952696 98.6758621,38.234825 L100.678161,41.6435373 Z M95.4367816,34.9251369 C96.3103448,34.9251369 96.908046,34.4452511 96.908046,33.5997382 C96.908046,32.7313735 96.3103448,32.228636 95.4367816,32.228636 L93.1149425,32.228636 C92.954023,32.228636 92.908046,32.2743394 92.908046,32.4343014 L92.908046,34.7194716 C92.908046,34.9251369 92.954023,34.9251369 93.1149425,34.9251369 L95.4367816,34.9251369 Z" id="Shape" fill="#F26822"/>
                <path d="M105,30.1136364 C105,28.8181818 106.057404,28.5 106.930911,28.5 C107.850393,28.5 108.908563,28.8181818 108.908563,30.1136364 L108.908563,38.7272727 C108.908563,40.1136364 109.713109,40.8181818 111.000383,40.8181818 C112.287657,40.8181818 113.092204,40.1136364 113.092204,38.7272727 L113.092204,30.1136364 C113.092204,28.8181818 114.149607,28.5 115.023115,28.5 C115.942596,28.5 117,28.8181818 117,30.1136364 L117,38.6590909 C117,42.1363636 114.977141,44.5 111.000383,44.5 C106.976885,44.5 105,42.1363636 105,38.6590909 L105,30.1136364 Z" id="Path" fill="#F26822"/>
            </g>
        </g>
    </g>
</svg>